<?xml version="1.0" standalone="no"?><!DOCTYPE svg PUBLIC "-//W3C//DTD SVG 1.1//EN" "http://www.w3.org/Graphics/SVG/1.1/DTD/svg11.dtd"><svg t="1695037399928" class="icon" viewBox="0 0 1024 1024" version="1.1" xmlns="http://www.w3.org/2000/svg" p-id="4952" xmlns:xlink="http://www.w3.org/1999/xlink" width="200" height="200"><path d="M731.776 46.72a38.784 38.784 0 0 1 6.336 77.056l-6.336 0.512H220.8c-41.216 0-75.52 32.896-79.68 75.584l-0.384 8.64-0.192 607.296c0 43.904 31.744 79.488 71.936 83.84l8.128 0.384h570.176c41.152 0 75.52-32.896 79.68-75.52l0.384-8.704V264.64a38.784 38.784 0 0 1 77.056-6.336l0.512 6.336v551.168c0 85.504-64.768 155.968-147.2 161.472l-10.432 0.32H220.544c-83.84 0-152-67.008-157.312-151.168l-0.32-10.624 0.128-607.296C63.04 123.008 127.808 52.544 210.304 47.04L220.8 46.72h511.04z m16.832 527.36a38.784 38.784 0 0 1 0 77.568h-449.92a38.784 38.784 0 0 1 0-77.568h449.92zM593.472 372.352a38.784 38.784 0 1 1 0 77.568H298.688a38.784 38.784 0 0 1 0-77.568h294.784zM955.392 35.584c15.36 14.848 15.808 39.424 0.96 54.848l-204.8 212.032a38.784 38.784 0 1 1-55.808-53.888l204.8-212.032a38.784 38.784 0 0 1 54.848-0.96z" fill="#B5B6B7" p-id="4953"></path></svg>